<?xml version="1.0"?>
<svg width="103" height="103" viewBox="0 0 103 103" xmlns="http://www.w3.org/2000/svg">
  <circle cx="51.5" cy="51.5" r="50" stroke="#000000" stroke-width="3" fill="none"/>
  <text x="51.5" y="14.399999999999999" font-size="7" text-anchor="middle">12</text>
  <text x="71.5" y="19.75898384862245" font-size="7" text-anchor="middle">1</text>
  <text x="86.14101615137754" y="34.399999999999984" font-size="7" text-anchor="middle">2</text>
  <text x="91.5" y="54.39999999999999" font-size="7" text-anchor="middle">3</text>
  <text x="86.14101615137756" y="74.39999999999999" font-size="7" text-anchor="middle">4</text>
  <text x="71.50000000000001" y="89.04101615137753" font-size="7" text-anchor="middle">5</text>
  <text x="51.50000000000001" y="94.4" font-size="7" text-anchor="middle">6</text>
  <text x="31.50000000000003" y="89.04101615137756" font-size="7" text-anchor="middle">7</text>
  <text x="16.858983848622465" y="74.40000000000002" font-size="7" text-anchor="middle">8</text>
  <text x="11.5" y="54.400000000000006" font-size="7" text-anchor="middle">9</text>
  <text x="16.858983848622437" y="34.40000000000003" font-size="7" text-anchor="middle">10</text>
  <text x="31.49999999999998" y="19.758983848622464" font-size="7" text-anchor="middle">11</text>
  <line x1="51.5" y1="1.5" x2="51.5" y2="6.000012398543497" stroke="black"/>
  <line x1="56.72642316338267" y1="1.7739052315863333" x2="56.41283777357971" y2="4.757470917691151" stroke="black"/>
  <line x1="61.89558454088797" y1="2.5926199633097156" x2="61.27184946843469" y2="5.527062765511133" stroke="black"/>
  <line x1="66.95084971874736" y1="3.947174185242318" x2="66.02379873562252" y2="6.800343734127779" stroke="black"/>
  <line x1="71.83683215379" y1="5.8227271178699525" x2="70.6166222245626" y2="8.563363490797755" stroke="black"/>
  <line x1="76.49999999999999" y1="8.198729810778062" x2="74.24999380072825" y2="12.095854865261678" stroke="black"/>
  <line x1="80.88926261462365" y1="11.04915028125263" x2="79.12590685774623" y2="13.476201264377472" stroke="black"/>
  <line x1="84.95653031794289" y1="14.342758726130278" x2="82.94913849886632" y2="16.57219320256246" stroke="black"/>
  <line x1="88.65724127386972" y1="18.04346968205708" x2="86.42780679743753" y2="20.050861501133657" stroke="black"/>
  <line x1="91.95084971874736" y1="22.11073738537634" x2="89.52379873562253" y2="23.874093142253756" stroke="black"/>
  <line x1="94.80127018922192" y1="26.499999999999982" x2="90.90414513473831" y2="28.750006199271734" stroke="black"/>
  <line x1="97.17727288213004" y1="31.16316784620998" x2="94.43663650920223" y2="32.38337777543738" stroke="black"/>
  <line x1="99.05282581475768" y1="36.04915028125262" x2="96.19965626587222" y2="36.976201264377465" stroke="black"/>
  <line x1="100.40738003669028" y1="41.10441545911201" x2="97.47293723448885" y2="41.72815053156529" stroke="black"/>
  <line x1="101.22609476841367" y1="46.273576836617316" x2="98.24252908230883" y2="46.587162226420276" stroke="black"/>
  <line x1="101.5" y1="51.49999999999999" x2="96.9999876014565" y2="51.49999999999999" stroke="black"/>
  <line x1="101.22609476841367" y1="56.726423163382655" x2="98.24252908230885" y2="56.412837773579696" stroke="black"/>
  <line x1="100.40738003669028" y1="61.89558454088795" x2="97.47293723448887" y2="61.271849468434674" stroke="black"/>
  <line x1="99.05282581475768" y1="66.95084971874736" x2="96.19965626587222" y2="66.02379873562252" stroke="black"/>
  <line x1="97.17727288213005" y1="71.83683215379" x2="94.43663650920226" y2="70.61662222456259" stroke="black"/>
  <line x1="94.80127018922194" y1="76.49999999999999" x2="90.90414513473833" y2="74.24999380072823" stroke="black"/>
  <line x1="91.95084971874738" y1="80.88926261462365" x2="89.52379873562253" y2="79.12590685774623" stroke="black"/>
  <line x1="88.65724127386972" y1="84.95653031794289" x2="86.42780679743754" y2="82.94913849886632" stroke="black"/>
  <line x1="84.95653031794292" y1="88.6572412738697" x2="82.94913849886635" y2="86.42780679743751" stroke="black"/>
  <line x1="80.88926261462366" y1="91.95084971874736" x2="79.12590685774624" y2="89.52379873562253" stroke="black"/>
  <line x1="76.50000000000003" y1="94.80127018922192" x2="74.24999380072828" y2="90.90414513473831" stroke="black"/>
  <line x1="71.83683215379004" y1="97.17727288213003" x2="70.61662222456265" y2="94.43663650920223" stroke="black"/>
  <line x1="66.95084971874738" y1="99.05282581475768" x2="66.02379873562253" y2="96.19965626587222" stroke="black"/>
  <line x1="61.89558454088799" y1="100.40738003669028" x2="61.27184946843471" y2="97.47293723448885" stroke="black"/>
  <line x1="56.72642316338271" y1="101.22609476841367" x2="56.41283777357975" y2="98.24252908230883" stroke="black"/>
  <line x1="51.50000000000001" y1="101.5" x2="51.50000000000001" y2="96.9999876014565" stroke="black"/>
  <line x1="46.27357683661735" y1="101.22609476841367" x2="46.58716222642031" y2="98.24252908230885" stroke="black"/>
  <line x1="41.104415459112076" y1="100.40738003669028" x2="41.72815053156535" y2="97.47293723448888" stroke="black"/>
  <line x1="36.049150281252636" y1="99.05282581475768" x2="36.97620126437748" y2="96.19965626587222" stroke="black"/>
  <line x1="31.163167846210012" y1="97.17727288213005" x2="32.38337777543741" y2="94.43663650920226" stroke="black"/>
  <line x1="26.500000000000032" y1="94.80127018922195" x2="28.75000619927178" y2="90.90414513473834" stroke="black"/>
  <line x1="22.110737385376353" y1="91.95084971874738" x2="23.874093142253773" y2="89.52379873562253" stroke="black"/>
  <line x1="18.043469682057108" y1="88.65724127386973" x2="20.050861501133685" y2="86.42780679743754" stroke="black"/>
  <line x1="14.342758726130313" y1="84.95653031794293" x2="16.572193202562495" y2="82.94913849886636" stroke="black"/>
  <line x1="11.049150281252636" y1="80.88926261462368" x2="13.476201264377472" y2="79.12590685774624" stroke="black"/>
  <line x1="8.198729810778083" y1="76.50000000000003" x2="12.095854865261693" y2="74.24999380072828" stroke="black"/>
  <line x1="5.822727117869974" y1="71.83683215379004" x2="8.563363490797776" y2="70.61662222456265" stroke="black"/>
  <line x1="3.947174185242325" y1="66.95084971874738" x2="6.800343734127786" y2="66.02379873562253" stroke="black"/>
  <line x1="2.5926199633097227" y1="61.895584540887995" x2="5.52706276551114" y2="61.271849468434716" stroke="black"/>
  <line x1="1.7739052315863333" y1="56.72642316338271" x2="4.757470917691158" y2="56.41283777357975" stroke="black"/>
  <line x1="1.5" y1="51.500000000000014" x2="6.000012398543497" y2="51.500000000000014" stroke="black"/>
  <line x1="1.7739052315863333" y1="46.27357683661735" x2="4.757470917691151" y2="46.58716222642031" stroke="black"/>
  <line x1="2.5926199633097085" y1="41.104415459112076" x2="5.5270627655111255" y2="41.72815053156535" stroke="black"/>
  <line x1="3.947174185242318" y1="36.04915028125264" x2="6.800343734127779" y2="36.97620126437748" stroke="black"/>
  <line x1="5.822727117869945" y1="31.163167846210015" x2="8.563363490797748" y2="32.38337777543741" stroke="black"/>
  <line x1="8.198729810778048" y1="26.500000000000036" x2="12.095854865261664" y2="28.75000619927178" stroke="black"/>
  <line x1="11.049150281252622" y1="22.110737385376353" x2="13.476201264377465" y2="23.874093142253773" stroke="black"/>
  <line x1="14.34275872613027" y1="18.043469682057108" x2="16.572193202562453" y2="20.050861501133685" stroke="black"/>
  <line x1="18.043469682057058" y1="14.342758726130313" x2="20.05086150113363" y2="16.572193202562495" stroke="black"/>
  <line x1="22.110737385376332" y1="11.049150281252636" x2="23.874093142253752" y2="13.47620126437748" stroke="black"/>
  <line x1="26.49999999999997" y1="8.198729810778083" x2="28.750006199271724" y2="12.095854865261693" stroke="black"/>
  <line x1="31.163167846209948" y1="5.822727117869974" x2="32.38337777543735" y2="8.563363490797776" stroke="black"/>
  <line x1="36.049150281252615" y1="3.947174185242325" x2="36.97620126437746" y2="6.800343734127786" stroke="black"/>
  <line x1="41.104415459112005" y1="2.5926199633097298" x2="41.728150531565284" y2="5.52706276551114" stroke="black"/>
  <line x1="46.27357683661728" y1="1.7739052315863333" x2="46.58716222642025" y2="4.757470917691158" stroke="black"/>
</svg>