<?xml version="1.0" encoding="iso-8859-1"?>
<!-- Generator: Adobe Illustrator 18.1.1, SVG Export Plug-In . SVG Version: 6.00 Build 0)  -->
<svg version="1.1" id="Capa_1" xmlns="http://www.w3.org/2000/svg" xmlns:xlink="http://www.w3.org/1999/xlink" x="0px" y="0px"
	 viewBox="0 0 364.355 364.355" style="enable-background:new 0 0 364.355 364.355;" xml:space="preserve">
<g>
	<path style="fill:#010002;" d="M182.178,0C81.725,0,0,81.725,0,182.178s81.725,182.178,182.178,182.178
		s182.178-81.725,182.178-182.178S282.639,0,182.178,0z M182.178,348.098c-91.487,0-165.92-74.433-165.92-165.92
		s74.433-165.92,165.92-165.92s165.92,74.433,165.92,165.92S273.665,348.098,182.178,348.098z"/>
	<path style="fill:#010002;" d="M182.178,67.427c-4.495,0-8.129,3.633-8.129,8.129v106.623c0,4.495,3.633,8.129,8.129,8.129
		s8.129-3.633,8.129-8.129V75.555C190.306,71.06,186.673,67.427,182.178,67.427z"/>
</g>
<g>
</g>
<g>
</g>
<g>
</g>
<g>
</g>
<g>
</g>
<g>
</g>
<g>
</g>
<g>
</g>
<g>
</g>
<g>
</g>
<g>
</g>
<g>
</g>
<g>
</g>
<g>
</g>
<g>
</g>
</svg>
